<mxfile host="app.diagrams.net" agent="Mozilla/5.0 (Windows NT 10.0; Win64; x64) AppleWebKit/537.36 (KHTML, like Gecko) Chrome/137.0.0.0 Safari/537.36" version="28.2.5">
  <diagram name="PÃ¡gina-1" id="ONbbb96yLg2oVufJUNy2">
    <mxGraphModel dx="1426" dy="785" grid="1" gridSize="10" guides="1" tooltips="1" connect="1" arrows="1" fold="1" page="1" pageScale="1" pageWidth="827" pageHeight="1169" math="0" shadow="0">
      <root>
        <mxCell id="0" />
        <mxCell id="1" parent="0" />
        <mxCell id="jZ29wJrcqXjY8tIyTKuG-9" style="edgeStyle=orthogonalEdgeStyle;rounded=0;orthogonalLoop=1;jettySize=auto;html=1;entryX=1;entryY=0.5;entryDx=0;entryDy=0;" edge="1" parent="1" source="jZ29wJrcqXjY8tIyTKuG-1" target="jZ29wJrcqXjY8tIyTKuG-4">
          <mxGeometry relative="1" as="geometry" />
        </mxCell>
        <mxCell id="jZ29wJrcqXjY8tIyTKuG-10" style="edgeStyle=orthogonalEdgeStyle;rounded=0;orthogonalLoop=1;jettySize=auto;html=1;entryX=1;entryY=0.5;entryDx=0;entryDy=0;" edge="1" parent="1" source="jZ29wJrcqXjY8tIyTKuG-1" target="jZ29wJrcqXjY8tIyTKuG-8">
          <mxGeometry relative="1" as="geometry" />
        </mxCell>
        <mxCell id="jZ29wJrcqXjY8tIyTKuG-1" value="Visualizador" style="shape=umlActor;verticalLabelPosition=bottom;verticalAlign=top;html=1;outlineConnect=0;" vertex="1" parent="1">
          <mxGeometry x="797" y="430" width="30" height="60" as="geometry" />
        </mxCell>
        <mxCell id="jZ29wJrcqXjY8tIyTKuG-11" style="edgeStyle=orthogonalEdgeStyle;rounded=0;orthogonalLoop=1;jettySize=auto;html=1;entryX=0;entryY=0.5;entryDx=0;entryDy=0;" edge="1" parent="1" source="jZ29wJrcqXjY8tIyTKuG-2" target="jZ29wJrcqXjY8tIyTKuG-7">
          <mxGeometry relative="1" as="geometry" />
        </mxCell>
        <mxCell id="jZ29wJrcqXjY8tIyTKuG-12" style="edgeStyle=orthogonalEdgeStyle;rounded=0;orthogonalLoop=1;jettySize=auto;html=1;entryX=0;entryY=0.5;entryDx=0;entryDy=0;" edge="1" parent="1" source="jZ29wJrcqXjY8tIyTKuG-2" target="jZ29wJrcqXjY8tIyTKuG-8">
          <mxGeometry relative="1" as="geometry" />
        </mxCell>
        <mxCell id="jZ29wJrcqXjY8tIyTKuG-13" style="edgeStyle=orthogonalEdgeStyle;rounded=0;orthogonalLoop=1;jettySize=auto;html=1;entryX=0;entryY=0.5;entryDx=0;entryDy=0;" edge="1" parent="1" source="jZ29wJrcqXjY8tIyTKuG-2" target="jZ29wJrcqXjY8tIyTKuG-3">
          <mxGeometry relative="1" as="geometry" />
        </mxCell>
        <mxCell id="jZ29wJrcqXjY8tIyTKuG-14" style="edgeStyle=orthogonalEdgeStyle;rounded=0;orthogonalLoop=1;jettySize=auto;html=1;entryX=0;entryY=0.5;entryDx=0;entryDy=0;" edge="1" parent="1" source="jZ29wJrcqXjY8tIyTKuG-2" target="jZ29wJrcqXjY8tIyTKuG-5">
          <mxGeometry relative="1" as="geometry" />
        </mxCell>
        <mxCell id="jZ29wJrcqXjY8tIyTKuG-15" style="edgeStyle=orthogonalEdgeStyle;rounded=0;orthogonalLoop=1;jettySize=auto;html=1;entryX=0;entryY=0.5;entryDx=0;entryDy=0;" edge="1" parent="1" source="jZ29wJrcqXjY8tIyTKuG-2" target="jZ29wJrcqXjY8tIyTKuG-6">
          <mxGeometry relative="1" as="geometry" />
        </mxCell>
        <mxCell id="jZ29wJrcqXjY8tIyTKuG-16" style="edgeStyle=orthogonalEdgeStyle;rounded=0;orthogonalLoop=1;jettySize=auto;html=1;entryX=0;entryY=0.5;entryDx=0;entryDy=0;" edge="1" parent="1" source="jZ29wJrcqXjY8tIyTKuG-2" target="jZ29wJrcqXjY8tIyTKuG-4">
          <mxGeometry relative="1" as="geometry" />
        </mxCell>
        <mxCell id="jZ29wJrcqXjY8tIyTKuG-2" value="Regencia" style="shape=umlActor;verticalLabelPosition=bottom;verticalAlign=top;html=1;outlineConnect=0;" vertex="1" parent="1">
          <mxGeometry x="380" y="430" width="30" height="60" as="geometry" />
        </mxCell>
        <mxCell id="jZ29wJrcqXjY8tIyTKuG-3" value="Registrar Entrada de Material" style="ellipse;whiteSpace=wrap;html=1;" vertex="1" parent="1">
          <mxGeometry x="530" y="370" width="120" height="80" as="geometry" />
        </mxCell>
        <mxCell id="jZ29wJrcqXjY8tIyTKuG-4" value="Visualizar Inventario" style="ellipse;whiteSpace=wrap;html=1;" vertex="1" parent="1">
          <mxGeometry x="530" y="720" width="120" height="80" as="geometry" />
        </mxCell>
        <mxCell id="jZ29wJrcqXjY8tIyTKuG-5" value="Registrar Salida de Material" style="ellipse;whiteSpace=wrap;html=1;" vertex="1" parent="1">
          <mxGeometry x="530" y="480" width="120" height="80" as="geometry" />
        </mxCell>
        <mxCell id="jZ29wJrcqXjY8tIyTKuG-6" value="Ubicar Material" style="ellipse;whiteSpace=wrap;html=1;" vertex="1" parent="1">
          <mxGeometry x="530" y="600" width="120" height="80" as="geometry" />
        </mxCell>
        <mxCell id="jZ29wJrcqXjY8tIyTKuG-7" value="Registrar material" style="ellipse;whiteSpace=wrap;html=1;" vertex="1" parent="1">
          <mxGeometry x="530" y="150" width="120" height="80" as="geometry" />
        </mxCell>
        <mxCell id="jZ29wJrcqXjY8tIyTKuG-8" value="Consultar Stock" style="ellipse;whiteSpace=wrap;html=1;" vertex="1" parent="1">
          <mxGeometry x="530" y="260" width="120" height="80" as="geometry" />
        </mxCell>
      </root>
    </mxGraphModel>
  </diagram>
</mxfile>
